<?xml version="1.0" encoding="UTF-8" standalone="no"?>
<!-- Created with Inkscape (http://www.inkscape.org/) -->

<svg
   xmlns:dc="http://purl.org/dc/elements/1.1/"
   xmlns:cc="http://creativecommons.org/ns#"
   xmlns:rdf="http://www.w3.org/1999/02/22-rdf-syntax-ns#"
   xmlns:svg="http://www.w3.org/2000/svg"
   xmlns="http://www.w3.org/2000/svg"
   xmlns:xlink="http://www.w3.org/1999/xlink"
   xmlns:sodipodi="http://sodipodi.sourceforge.net/DTD/sodipodi-0.dtd"
   xmlns:inkscape="http://www.inkscape.org/namespaces/inkscape"
   width="10.422488mm"
   height="9.2629738mm"
   viewBox="0 0 10.422488 9.2629738"
   version="1.1"
   id="svg8"
   inkscape:version="0.92.4 (5da689c313, 2019-01-14)"
   sodipodi:docname="folk.svg">
  <defs
     id="defs2">
    <linearGradient
       inkscape:collect="always"
       id="linearGradient950">
      <stop
         style="stop-color:#acbf64;stop-opacity:1;"
         offset="0"
         id="stop946" />
      <stop
         style="stop-color:#acbf64;stop-opacity:0;"
         offset="1"
         id="stop948" />
    </linearGradient>
    <linearGradient
       inkscape:collect="always"
       xlink:href="#linearGradient950"
       id="linearGradient952"
       x1="34.627342"
       y1="86.75547"
       x2="34.627342"
       y2="90.167076"
       gradientUnits="userSpaceOnUse" />
  </defs>
  <sodipodi:namedview
     id="base"
     pagecolor="#ffffff"
     bordercolor="#666666"
     borderopacity="1.0"
     inkscape:pageopacity="0.0"
     inkscape:pageshadow="2"
     inkscape:zoom="16"
     inkscape:cx="17.541335"
     inkscape:cy="15.242272"
     inkscape:document-units="mm"
     inkscape:current-layer="layer1"
     showgrid="false"
     inkscape:window-width="2880"
     inkscape:window-height="1526"
     inkscape:window-x="-11"
     inkscape:window-y="-11"
     inkscape:window-maximized="1"
     fit-margin-top="0"
     fit-margin-left="0"
     fit-margin-right="0"
     fit-margin-bottom="0" />
  <metadata
     id="metadata5">
    <rdf:RDF>
      <cc:Work
         rdf:about="">
        <dc:format>image/svg+xml</dc:format>
        <dc:type
           rdf:resource="http://purl.org/dc/dcmitype/StillImage" />
        <dc:title></dc:title>
      </cc:Work>
    </rdf:RDF>
  </metadata>
  <g
     inkscape:label="Layer 1"
     inkscape:groupmode="layer"
     id="layer1"
     transform="translate(-29.911032,-80.991899)">
    <path
       style="opacity:1;fill:url(#linearGradient952);fill-opacity:1;stroke:none;stroke-width:0.26499999;stroke-linecap:butt;stroke-linejoin:miter;stroke-miterlimit:4;stroke-dasharray:none;stroke-opacity:1"
       d="m 30.457119,90.254867 h 9.438184 l -0.04244,-4.202198 -0.851627,-0.892969 -1.471745,0.07441 -0.838129,0.927979 -0.468251,-1.357926 -1.595769,-0.479557 -0.975651,1.083137 -0.330729,1.16582 -1.405598,-0.851627 -1.322918,0.818555 -0.13533,3.714372"
       id="path936"
       inkscape:connector-curvature="0"
       sodipodi:nodetypes="ccccccccccccc" />
    <g
       aria-label="m"
       style="font-style:normal;font-variant:normal;font-weight:normal;font-stretch:normal;font-size:10.58333302px;line-height:1.25;font-family:'Trebuchet MS';-inkscape-font-specification:'Trebuchet MS';letter-spacing:0px;word-spacing:0px;fill:#000000;fill-opacity:1;stroke:none;stroke-width:0.26458332"
       id="text839">
      <path
         d="m 39.351668,90.254868 v -3.503662 c 0,-0.871609 -0.377238,-1.307414 -1.131714,-1.307414 -0.237711,0 -0.45992,0.07407 -0.666626,0.222209 -0.206706,0.144694 -0.347955,0.310058 -0.423747,0.496093 v 4.092774 h -0.981852 v -3.932577 c 0,-0.846504 0.659487,-0.667191 0.847494,-0.966349 0.126274,-0.200928 0.315226,-0.385851 0.614949,-0.5271 0.299723,-0.141249 0.608059,-0.211873 0.925008,-0.211873 0.571886,0 1.014581,0.170532 1.328084,0.511597 0.313504,0.337619 0.470256,0.813042 0.470256,1.426269 v 3.700033 z"
         style="font-style:normal;font-variant:normal;font-weight:normal;font-stretch:normal;font-family:'Trebuchet MS';-inkscape-font-specification:'Trebuchet MS';stroke-width:0.26458332"
         id="path845"
         inkscape:connector-curvature="0"
         sodipodi:nodetypes="csscccccscscscc" />
    </g>
    <g
       transform="translate(-3.219441,-0.800984)"
       aria-label="m"
       style="font-style:normal;font-variant:normal;font-weight:normal;font-stretch:normal;font-size:10.58333302px;line-height:1.25;font-family:'Trebuchet MS';-inkscape-font-specification:'Trebuchet MS';letter-spacing:0px;word-spacing:0px;opacity:1;fill:#000000;fill-opacity:1;stroke:none;stroke-width:0.26458332"
       id="text839-9">
      <path
         inkscape:connector-curvature="0"
         d="m 39.36717,91.055852 -0.0051,-4.198156 c -0.0011,-0.871609 -0.377238,-1.307414 -1.131714,-1.307414 -0.237711,0 -0.45992,0.07407 -0.666626,0.222209 -0.206706,0.144694 -0.347955,0.310058 -0.423747,0.496093 l 0.0051,4.787268 h -0.981852 c 0,0 0.153918,-2.227284 0.246017,-3.339742 0.0351,-0.423932 0.0022,-0.861139 0.11682,-1.270789 0.09822,-0.351068 0.256641,-0.694461 0.479595,-0.982885 0.165115,-0.213601 0.373866,-0.405578 0.614949,-0.5271 0.282465,-0.142381 0.608059,-0.211873 0.925008,-0.211873 0.571886,0 1.014581,0.170532 1.328084,0.511597 0.313504,0.337619 0.470256,0.813042 0.470256,1.426269 l 0.0051,4.394527 z"
         style="font-style:normal;font-variant:normal;font-weight:normal;font-stretch:normal;font-family:'Trebuchet MS';-inkscape-font-specification:'Trebuchet MS';stroke-width:0.26458332"
         id="path845-1"
         sodipodi:nodetypes="cssccccaaaascscc" />
    </g>
    <g
       transform="matrix(-1,0,0,1,66.860712,0.71116368)"
       aria-label="m"
       style="font-style:normal;font-variant:normal;font-weight:normal;font-stretch:normal;font-size:10.58333302px;line-height:1.25;font-family:'Trebuchet MS';-inkscape-font-specification:'Trebuchet MS';letter-spacing:0px;word-spacing:0px;fill:#000000;fill-opacity:1;stroke:none;stroke-width:0.26458332"
       id="text839-6">
      <path
         inkscape:connector-curvature="0"
         d="m 36.947228,86.163031 v 3.380673 h -0.981852 v -3.220476 c 0,-0.272163 -0.103353,-0.485759 -0.310058,-0.640788 -0.203261,-0.158474 -0.473701,-0.237711 -0.81132,-0.237711 -0.196371,0 -0.406522,0.07579 -0.630453,0.227376 -0.220486,0.151584 -0.28838,0.339134 -0.296622,0.501262 v 3.370337 H 32.93507 v -2.565688 l 0.434082,-1.149343 0.358635,-0.466626 c 0.37896,-0.496094 0.852661,-0.744141 1.421102,-0.744141 0.792371,0 1.091994,0.190291 1.453506,0.563577 0.241255,0.249112 0.366726,0.764066 0.344833,0.981548 z"
         style="font-style:normal;font-variant:normal;font-weight:normal;font-stretch:normal;font-family:'Trebuchet MS';-inkscape-font-specification:'Trebuchet MS';stroke-width:0.26458332"
         id="path845-4"
         sodipodi:nodetypes="cccscscccccccsac" />
    </g>
    <path
       sodipodi:type="star"
       style="opacity:1;fill:#acbf64;fill-opacity:1;stroke:#000000;stroke-width:0.65799999;stroke-linecap:round;stroke-linejoin:miter;stroke-miterlimit:4;stroke-dasharray:none;stroke-dashoffset:3.9987402;stroke-opacity:1;paint-order:normal"
       id="path902"
       sodipodi:sides="5"
       sodipodi:cx="34.821877"
       sodipodi:cy="82.63147"
       sodipodi:r1="1.4571798"
       sodipodi:r2="1.5926807"
       sodipodi:arg1="-0.94494988"
       sodipodi:arg2="-0.3166313"
       inkscape:flatsided="true"
       inkscape:rounded="0"
       inkscape:randomized="0"
       d="m 35.675468,81.450473 0.533378,1.627863 -1.383367,1.010309 -1.388345,-1.003457 0.525322,-1.630481 z"
       inkscape:transform-center-x="-0.12245302"
       inkscape:transform-center-y="-0.19942409"
       transform="rotate(10.880272,34.582839,82.682436)" />
    <path
       sodipodi:type="star"
       style="opacity:1;fill:#acbf64;fill-opacity:1;stroke:#000000;stroke-width:0.65799999;stroke-linecap:round;stroke-linejoin:miter;stroke-miterlimit:4;stroke-dasharray:none;stroke-dashoffset:3.9987402;stroke-opacity:1;paint-order:normal"
       id="path902-6"
       sodipodi:sides="5"
       sodipodi:cx="34.821877"
       sodipodi:cy="82.63147"
       sodipodi:r1="1.4571798"
       sodipodi:r2="1.5926807"
       sodipodi:arg1="-0.94494988"
       sodipodi:arg2="-0.3166313"
       inkscape:flatsided="true"
       inkscape:rounded="0"
       inkscape:randomized="0"
       d="m 35.675468,81.450473 0.533378,1.627863 -1.383367,1.010309 -1.388345,-1.003457 0.525322,-1.630481 z"
       inkscape:transform-center-x="-0.25273095"
       inkscape:transform-center-y="-0.24454554"
       transform="matrix(0.72095127,0.50232697,-0.50889971,0.71163976,55.457879,7.1381529)" />
    <path
       sodipodi:type="star"
       style="opacity:1;fill:#acbf64;fill-opacity:1;stroke:#000000;stroke-width:0.65799999;stroke-linecap:round;stroke-linejoin:miter;stroke-miterlimit:4;stroke-dasharray:none;stroke-dashoffset:3.9987402;stroke-opacity:1;paint-order:normal"
       id="path902-6-6"
       sodipodi:sides="6"
       sodipodi:cx="34.821877"
       sodipodi:cy="82.63147"
       sodipodi:r1="1.4571798"
       sodipodi:r2="1.5926807"
       sodipodi:arg1="-0.94494988"
       sodipodi:arg2="-0.4213511"
       inkscape:flatsided="true"
       inkscape:rounded="0"
       inkscape:randomized="0"
       d="m 35.675468,81.450473 0.595978,1.32973 -0.853592,1.180997 -1.449569,-0.148733 -0.595978,-1.329731 0.853592,-1.180997 z"
       inkscape:transform-center-x="-0.25273095"
       inkscape:transform-center-y="-0.24454554"
       transform="matrix(0.72095127,0.50232696,-0.50889972,0.71163976,48.537362,7.8159809)" />
  </g>
</svg>
