<?xml version="1.0" encoding="UTF-8" standalone="no"?>
<!-- Created with Inkscape (http://www.inkscape.org/) -->

<svg
   xmlns:dc="http://purl.org/dc/elements/1.1/"
   xmlns:cc="http://creativecommons.org/ns#"
   xmlns:rdf="http://www.w3.org/1999/02/22-rdf-syntax-ns#"
   xmlns:svg="http://www.w3.org/2000/svg"
   xmlns="http://www.w3.org/2000/svg"
   xmlns:sodipodi="http://sodipodi.sourceforge.net/DTD/sodipodi-0.dtd"
   xmlns:inkscape="http://www.inkscape.org/namespaces/inkscape"
   width="111.18856mm"
   height="58.672409mm"
   viewBox="0 0 111.18856 58.672409"
   version="1.1"
   id="svg831"
   inkscape:version="0.92.4 (5da689c313, 2019-01-14)"
   sodipodi:docname="nordurstrond_skuggi.svg">
  <defs
     id="defs825">
    <filter
       inkscape:collect="always"
       style="color-interpolation-filters:sRGB"
       id="filter5153"
       x="-0.0069615231"
       width="1.013923"
       y="-0.0052718534"
       height="1.0105437">
      <feGaussianBlur
         inkscape:collect="always"
         stdDeviation="1.2189633"
         id="feGaussianBlur5155" />
    </filter>
  </defs>
  <sodipodi:namedview
     id="base"
     pagecolor="#ffffff"
     bordercolor="#666666"
     borderopacity="1.0"
     inkscape:pageopacity="0.0"
     inkscape:pageshadow="2"
     inkscape:zoom="1.979899"
     inkscape:cx="168.22176"
     inkscape:cy="82.906928"
     inkscape:document-units="mm"
     inkscape:current-layer="layer1"
     showgrid="false"
     fit-margin-top="1"
     fit-margin-left="0"
     fit-margin-right="0"
     fit-margin-bottom="0"
     inkscape:window-width="1920"
     inkscape:window-height="986"
     inkscape:window-x="-11"
     inkscape:window-y="1609"
     inkscape:window-maximized="1" />
  <metadata
     id="metadata828">
    <rdf:RDF>
      <cc:Work
         rdf:about="">
        <dc:format>image/svg+xml</dc:format>
        <dc:type
           rdf:resource="http://purl.org/dc/dcmitype/StillImage" />
        <dc:title></dc:title>
      </cc:Work>
    </rdf:RDF>
  </metadata>
  <g
     inkscape:label="Layer 1"
     inkscape:groupmode="layer"
     id="layer1"
     transform="translate(0.32227361,-18.573061)">
    <path
       d="m 74.264012,132.11832 -1.2,0.8 -1.1,-0.4 -0.8,-0.8 -0.5,-1.3 -0.2,-1.8 -0.5,-2.7 -0.9,-3.2 0.5,-0.8 1.8,2 1.6,2.7 1.3,2.9 z M 121.864,89.518321 l -0.1,2.5 -0.7,-0.1 -0.5,1.2 -1.6,-0.6 h -1.5 l -0.1,-2.1 0.9,-0.7 2.4,-0.5 z m 301.30173,41.599999 v 82.13097 H 2.925512 V 92.818321 l 6.9385,-1.5 3.2,-2.8 8,-3.1 2.9,1.4 -0.6,7.2 1.7,-0.7 1.2,-1.9 2.1,-4.9 -0.7,-3 1.6,-1.4 2.5,0.5 4.5,2.2 -0.7,3.4 -1.5,4.9 -0.3,3.3 1,-0.1 6.5,-6.8 2.7,0.6 2.1,2.7 1.9,2.9 1.7,1.4 0.8,1.6 -1,3.499999 -2.6,5.7 1.2,0.1 1.3,-0.3 1.2,-0.9 0.9,-1.2 1.1,-0.9 1.1,1 1.2,1.4 1,0.8 1.4,1.7 0.9,3.9 0.7,4.5 1,3.5 -1.7,6.6 -0.7,3.9 0.2,1.8 6.5,1.6 4.2,2.7 6.700004,1 0.9,0.7 1,1.8 1.5,3.6 2.1,1.7 0.7,2.2 0.4,2.6 1.3,4.6 0.7,0.3 1.7,-0.2 0.8,0.2 0.6,0.8 0.9,2.7 0.3,1.8 -0.2,6.2 0.3,2.5 1.7,3.9 0.5,1.7 v 9.3 l 0.3,1.4 0.8,0.6 2.6,3.9 4.3,4.5 -0.5,2.9 0.4,4 1.1,3.1 1.500004,0.5 1.1,-2.7 v -4.1 l -0.8,-3.9 -0.9,-2.7 -0.700004,-0.8 -1.9,-1.4 -0.5,-0.9 -0.4,-2.5 0.2,-1.4 0.8,-2.3 v -2 l -0.3,-3.1 0.3,-2.4 0.5,-0.8 1.5,-1.5 0.500004,-0.7 0.5,-4.1 -0.3,-3.5 -2.700004,-10.5 v -3.8 l -0.2,-0.8 -1.2,0.3 -0.5,-0.2 -1.8,-4 -0.7,-0.7 -0.4,-1.2 -1,0.3 -0.7,2.1 -0.3,0.4 -1.2,-0.8 -2.8,-3.6 -1,-1.6 0.9,-3.2 -0.4,-2.9 -1.1,-2.3 -2.6,-1.7 -1.8,-4.6 -1.2,-2.1 v -1.6 h 0.7 v -1.6 l -2.5,-6.3 -1.1,-10.4 0.5,-10.399999 2.4,-6.5 1.2,-0.5 8.1,0.5 1.3,0.8 2.1,1.9 1.3,0.4 3.8,-0.4 1.5,0.4 -0.3,1.2 -0.4,0.4 3.400004,2 8.89998,-2.3 3.8,1.7 0.8,1.8 0.9,4.399999 0.8,1.6 1,0.5 3.7,-0.5 1.6,1 2.9,4.2 1.6,0.9 1.3,1.1 3.5,5.6 1.1,2.4 1.5,6.5 1,2.9 2.9,2.2 1.6,2.3 2.3,4.5 3.1,9.2 1.3,2.9 0.3,-4.2 -0.69999,-3.3 -1.2,-3 -0.9,-3.2 1.69999,0.1 2.1,-0.6 2,-1.1 1.6,-1.5 -8.3,0.5 -2.2,-1.9 14.4,-0.2 1.1,1.1 0.6,2.5 1.3,4.1 h 0.5 l 0.5,-1.6 0.1,-1.6 -0.3,-1.6 -0.8,-1.3 v -1.4 l 1.1,-1 1.1,-1.6 0.5,-2.3 -0.3,-2.9 1.5,-1.7 0.6,-1.1 0.4,-1.7 0.1,-1.2 -0.2,-3.5 0.1,-2.9 1.1,-3 2.3,-3 2.7,-2.2 2.3,-0.9 0.9,-1.199999 0.6,-2.6 v -2.7 l -0.3,-1.2 -1,-0.6 0.4,-1.6 1.9,-3.2 2.4,-2.6 5.6,-2.1 0.9,-3.9 2.4,2.3 9.1,0.9 2.4,1.7 1.8,4 3.5,9.6 -0.1,1.2 0.1,1.999999 h -1.2 v 1.5 l 1,1 1.2,0.5 1.1,-0.3 1.1,-1.2 -0.6,-0.2 -1.4,-1.3 3.3,-2.499999 11.4,-3.2 1.8,1 -1.4,0.5 -1.4,1 -1.3,1.7 1.2,0.8 1.6,3.199999 0.7,-0.3 1.8,-4.499999 1.1,-1.8 1.1,-0.5 2.5,2.5 1.9,3.999999 2,3.3 2.9,0.8 v -1.4 l -2.9,-2.2 -1.4,-1.6 -1,-1.599999 -0.7,-2.9 v -2.2 l -0.4,-1.8 -1.6,-1.6 4.1,-3 6.1,-2.1 3.8,-2.4 h 2.1 l -8,4.7 -2.5,2.8 7.9,-3.2 1.9,0.1 2.2,2 3.5,5.4 2.4,0.4 v -1.7 l -3.2,-3.3 -1.6,-2.5 -0.7,-2.5 0.3,-3.4 1,-2.9 1.3,-2.2 1.6,-1.5 -0.1,-1.4 0.30001,-1 0.8,-1.8 0.6,-2.2 0.3,-2.1 -0.2,-3.4 -0.7,-1.9 -0.8,-1.5 -1.5,-3.4 -0.9,-1.3 -0.6,-0.1 -0.5,-0.9 -0.2,-3.9 -0.2,-1.3 -2.5,-2.000003 -0.6,-1.8 0.7,-4 h -1.3 l 1.3,-3.199995 -0.7,-0.7 -0.4,-0.9 -0.9,-2.9 h 2 v -1.6 l -1.6,-2.2 -1.7,-7.2 -2.6,-3 0.8,-3.1 1.9,-2.8 1.9,-0.4 0.5,1.4 0.1,1.7 0.3,1.4 1,0.3 0.6,-3.2 0.7,-2.1 1.1,-1 2.6,-1.099999 1.5,0.1 v 1.799999 l -0.5,2.5 0.3,2.1 0.8,1.6 1,0.7 -0.4,-3.2 -0.3,-1.3 1.4,-0.5 2.7,-2.3 0.8,-0.4 1.4,1.2 1,1.7 1,1.4 1.6,0.3 -1.3,1.4 -0.5,0.3 1.5,1.4 1.7,-0.3 2.3,-1.1 v -1.7 l 1,-1.6 0.9,-2.2 1.1,-1.4 0.8,3.2 1,0.4 1,-1.3 0.8,-4.2999996 0.7,-1.1 2,-1 h 2.5 l 5.2,2.3 1,-0.6 4.2,-1.8 7.6,7.6999996 4.3,1.7 -1.2,2.1 -1.4,0.9 -1.2,1.4 -0.5,3.5 h 1.2 v 1.4 l -1.8,1.7 0.4,0.6 1.4,2.5 -1.1,2 1.3,0.4 3.2,-0.9 3.7,0.9 1.5,-0.9 -0.5,4.7 h 8.6 l 1.7,0.6 1.4,1.6 0.9,1.999995 -0.2,3.5 1.8,6.200003 -3.8,7.1 -2.10001,2.9 -2.79999,2.3 1.29999,3.2 1.10001,-1.3 1.1,0.7 1.2,1.4 3,1.3 0.3,1.6 -0.4,2.4 -0.7,3.1 1.4,1.2 6.6,0.3 3.2,-1.5 1.1,0.3 1.3,2.6 1,-0.4 0.8,-1 0.2,2.4 0.6,2 0.9,1.4 2.6,1.2 2.7,3 2.9,2.4 1.7,3 1.8,2 2.2,-2 -0.8,-0.3 -0.5,-1.3 1.6,-1.2 1.1,-2.5 0.8,-3.5 0.2,-4.4 -0.3,-4.5 -0.4,-3.2 0.6,-2.2 2.6,-1.5 h 11.1 l 6.4,-2.3 0.5,-1.7 0.1,-2.1 0.5,-1.7 6.4,-4.2 1,-2.7 0.6,-3.5 1.5,-2.700003 3.6,-3.7 2.4,-1.8 7.7,-1.4 2.2,0.6 3.4,3 2.2,1 17.2,-3 -4.3,4.8 -16,7.400003 -7.2,5.6 -8.3,2.1 -2.8,2.4 -2.2,3.9 2.2,0.8 1.1,1.2 0.5,1.8 0.4,0.4 2,4 1,2.2 -0.4,2.7 -1.1,3.7 -0.8,1.7 -8.6,8.5 -1.6,0.7 -5.5,0.4 -2.4,2.1 -1.7,4.999999 2.8,2.2 1.4,0.6 5.3,0.4 1.2,1.7 0.5,4.2 -1,0.7 -1.6,1.8 -1.1,0.7 1.89999,1.5 10.20001,0.3 5.79999,2.8 4.10001,-0.4 7.5,-6.8 4.6,-0.6 2,1.1 1.8,2.1 1.3,3.4 0.5,5 0.5,2.6 1.3,0.9 1.3,0.3 0.6,0.8 z M 108.264,6.8183234 l -1.7,1.3 -1.6,-2.6 -0.2,-3.8000001 1,-0.6 2.2,3.1000001 0.7,0.5 z"
       id="ISL702-7"
       name="Norðurland eystra"
       style="opacity:0.66000001;fill:#000000;fill-opacity:1;stroke:none;stroke-width:2;stroke-linecap:round;stroke-linejoin:round;stroke-opacity:1;filter:url(#filter5153)"
       inkscape:connector-curvature="0"
       sodipodi:nodetypes="ccccccccccccccccccccccccccccccccccccccccccccccccccccccccccccccccccccccccccccccccccccccccccccccccccccccccccccccccccccccccccccccccccccccccccccccccccccccccccccccccccccccccccccccccccccccccccccccccccccccccccccccccccccccccccccccccccccccccccccccccccccccccccccccccccccccccccccccccccccccccccccccccccccccccccccccccccccccccccccccccccccccccccccccccccccccccccccccccccccccccccccccccccccccccccccccccccccccccccccccccccccccccccccccccccccccccccccccccccccccccccccccccccccccccccccccccccccccc"
       transform="matrix(0.26458333,0,0,0.26458333,-1.0435278,18.564128)" />
    <path
       d="m 18.552704,53.57348 -0.3175,0.211666 -0.291041,-0.105833 -0.211667,-0.211667 -0.132292,-0.343958 -0.05292,-0.47625 -0.132292,-0.714375 -0.238125,-0.846667 0.132292,-0.211666 0.47625,0.529166 0.423333,0.714375 0.343958,0.767292 z m 12.594167,-11.27125 -0.02646,0.661458 -0.185209,-0.02646 -0.132291,0.3175 -0.423334,-0.15875 h -0.396875 l -0.02646,-0.555625 0.238125,-0.185208 0.635,-0.132292 z M 110.86629,53.308896 V 77.245473 H -0.32227361 V 43.175355 l 1.83581141,-0.396875 0.8466667,-0.740833 2.1166667,-0.820209 0.7672916,0.370417 -0.15875,1.905 0.4497917,-0.185208 0.3175,-0.502709 0.555625,-1.296458 -0.1852083,-0.79375 0.4233333,-0.370417 0.6614583,0.132292 1.190625,0.582083 -0.1852083,0.899584 -0.396875,1.296458 -0.079375,0.873125 0.2645833,-0.02646 1.7197914,-1.799167 0.7143748,0.15875 0.555625,0.714375 0.502709,0.767292 0.449791,0.370416 0.211667,0.423334 -0.264583,0.926041 -0.687917,1.508125 0.3175,0.02646 0.343958,-0.07937 0.3175,-0.238125 0.238125,-0.3175 0.291042,-0.238125 0.291042,0.264584 0.3175,0.370416 0.264583,0.211667 0.370417,0.449792 0.238125,1.031875 0.185208,1.190625 0.264583,0.926041 -0.449791,1.74625 -0.185209,1.031875 0.05292,0.47625 1.719792,0.423334 1.11125,0.714375 1.772709,0.264583 0.238125,0.185208 0.264583,0.47625 0.396875,0.9525 0.555625,0.449792 0.185209,0.582083 0.105833,0.687917 0.343958,1.217083 0.185209,0.07938 0.449791,-0.05292 0.211667,0.05292 0.15875,0.211667 0.238125,0.714375 0.07938,0.47625 -0.05292,1.640417 0.07937,0.661458 0.449792,1.031875 0.132292,0.449792 v 2.460625 l 0.07937,0.370416 0.211666,0.15875 0.687917,1.031875 1.137708,1.190625 -0.132291,0.767292 0.105833,1.058333 0.291042,0.820209 0.396874,0.132291 0.291041,-0.714375 v -1.084801 l -0.211661,-1.031875 -0.238124,-0.714375 -0.185209,-0.211667 -0.502708,-0.370417 -0.132292,-0.238125 -0.105833,-0.661458 0.05292,-0.370417 0.211666,-0.608541 v -0.529167 l -0.07938,-0.820208 0.07938,-0.635 0.132292,-0.211667 0.396875,-0.396875 0.132292,-0.185208 0.13229,-1.084792 -0.07937,-0.926042 -0.714374,-2.778125 V 58.65348 l -0.05292,-0.211667 -0.3175,0.07937 -0.132292,-0.05292 -0.47625,-1.058333 -0.185208,-0.185208 -0.105834,-0.3175 -0.264583,0.07937 -0.185208,0.555625 -0.07938,0.105833 -0.3175,-0.211667 -0.740834,-0.9525 -0.264583,-0.423333 0.238125,-0.846667 -0.105833,-0.767291 -0.291042,-0.608542 -0.687917,-0.449792 -0.47625,-1.217083 -0.3175,-0.555625 v -0.423333 h 0.185209 v -0.423334 l -0.661459,-1.666875 -0.291041,-2.751666 0.132291,-2.751667 0.635,-1.719791 0.3175,-0.132292 2.143125,0.132292 0.343959,0.211666 0.555625,0.502709 0.343958,0.105833 1.005417,-0.105833 0.396875,0.105833 -0.07937,0.3175 -0.105834,0.105833 0.899583,0.529167 2.354791,-0.608542 1.005417,0.449792 0.211667,0.47625 0.238125,1.164166 0.211666,0.423334 0.264584,0.132291 0.978958,-0.132291 0.423333,0.264583 0.767292,1.11125 0.423333,0.238125 0.343959,0.291042 0.926041,1.481666 0.291042,0.635 0.396875,1.719792 0.264583,0.767292 0.767292,0.582083 0.423333,0.608542 0.608542,1.190625 0.820208,2.434166 0.343959,0.767292 0.07938,-1.11125 -0.185209,-0.873125 -0.3175,-0.79375 -0.238125,-0.846667 0.449792,0.02646 0.555625,-0.15875 0.529167,-0.291042 0.423333,-0.396875 -2.196042,0.132292 -0.582083,-0.502709 3.81,-0.05292 0.291042,0.291041 0.15875,0.661459 0.343958,1.084791 h 0.132292 l 0.132291,-0.423333 0.02646,-0.423333 -0.07937,-0.423334 -0.211667,-0.343958 V 52.83263 l 0.291042,-0.264583 0.291041,-0.423333 0.132292,-0.608542 -0.07937,-0.767292 0.396875,-0.449791 0.15875,-0.291042 0.105833,-0.449792 0.02646,-0.3175 -0.05292,-0.926041 0.02646,-0.767292 0.291042,-0.79375 0.608542,-0.79375 0.714375,-0.582083 0.608541,-0.238125 0.238125,-0.3175 0.15875,-0.687917 v -0.714359 l -0.07937,-0.3175 -0.264583,-0.15875 0.105833,-0.423333 0.502709,-0.846667 0.635,-0.687916 1.481666,-0.555625 0.238125,-1.031875 0.635,0.608541 2.407709,0.238125 0.635,0.449792 0.47625,1.058333 0.926041,2.54 -0.02646,0.3175 0.02646,0.529167 h -0.3175 v 0.396875 l 0.264584,0.264583 0.3175,0.132292 0.291041,-0.07937 0.291042,-0.3175 -0.15875,-0.05292 -0.370417,-0.343958 0.873125,-0.661458 3.01625,-0.846667 0.47625,0.264583 -0.370416,0.132292 -0.370417,0.264583 -0.343958,0.449792 0.3175,0.211667 0.423333,0.846666 0.185208,-0.07937 0.47625,-1.190625 0.291042,-0.47625 0.291042,-0.132291 0.661458,0.661458 0.502708,1.058333 0.529167,0.873125 0.767292,0.211667 V 46.376813 L 59.880621,45.79473 59.510204,45.371396 59.245621,44.948063 59.060413,44.180772 v -0.582084 l -0.105834,-0.47625 -0.423333,-0.423333 1.084792,-0.79375 1.613958,-0.555625 1.005417,-0.635 h 0.555625 l -2.116667,1.243542 -0.661458,0.740833 2.090208,-0.846667 0.502708,0.02646 0.582084,0.529166 0.926041,1.42875 0.635,0.105834 v -0.449792 l -0.846666,-0.873125 -0.423334,-0.661458 -0.185208,-0.661459 0.07938,-0.899583 0.264583,-0.767292 0.343959,-0.582083 0.423333,-0.396875 -0.02646,-0.370417 0.07937,-0.264583 0.211666,-0.47625 0.15875,-0.582083 0.07937,-0.555625 -0.05292,-0.899584 -0.185209,-0.502708 -0.211666,-0.396875 -0.396875,-0.899583 -0.238125,-0.343959 -0.15875,-0.02646 -0.132292,-0.238125 -0.05292,-1.031875 -0.05292,-0.343958 -0.661459,-0.529168 -0.15875,-0.47625 0.185209,-1.058333 h -0.343941 l 0.343959,-0.846666 -0.185209,-0.185208 -0.105833,-0.238125 -0.238125,-0.767292 h 0.529167 v -0.423333 l -0.423334,-0.582084 -0.449791,-1.905 -0.687917,-0.79375 0.211667,-0.820208 0.502708,-0.740833 0.502708,-0.105834 0.132292,0.370417 0.02646,0.449792 0.07937,0.370416 0.264584,0.07938 0.15875,-0.846666 0.185208,-0.555625 0.291042,-0.264584 0.687916,-0.291041 0.396875,0.02646 v 0.47625 l -0.132291,0.661458 0.07937,0.555625 0.211666,0.423333 0.264584,0.185209 -0.105834,-0.846667 -0.07937,-0.343958 0.370417,-0.132292 0.714375,-0.608542 0.211667,-0.105833 0.370416,0.3175 0.264584,0.449792 0.264583,0.370416 0.423333,0.07937 -0.343958,0.370417 -0.132292,0.07938 0.396875,0.370417 0.449792,-0.07938 0.608542,-0.291042 v -0.449791 l 0.264583,-0.423334 0.238125,-0.582083 0.291042,-0.370417 0.211666,0.846667 0.264584,0.105833 0.264583,-0.343958 0.211667,-1.137708 0.185208,-0.291042 0.529167,-0.264583 h 0.661458 l 1.375833,0.608541 0.264584,-0.15875 1.11125,-0.47625 2.010833,2.037292 1.137708,0.449792 -0.3175,0.555625 -0.370416,0.238125 -0.3175,0.370416 -0.132292,0.926042 h 0.3175 v 0.370417 l -0.47625,0.449791 0.105833,0.15875 0.370417,0.661459 -0.291042,0.529166 0.343959,0.105834 0.846666,-0.238125 0.978959,0.238125 0.396875,-0.238125 -0.132292,1.243541 h 2.275417 l 0.449791,0.158751 0.370417,0.423333 0.238125,0.529167 -0.05292,0.926041 0.47625,1.640418 -1.005416,1.878541 -0.555625,0.767292 -0.740834,0.608542 0.343959,0.846666 0.291041,-0.343958 0.291042,0.185208 0.3175,0.370417 0.79375,0.343958 0.07937,0.423334 -0.105833,0.635 -0.185209,0.820208 0.370417,0.3175 1.74625,0.07937 0.846667,-0.396875 0.291041,0.07937 0.343959,0.687917 0.264583,-0.105834 0.211667,-0.264583 0.05292,0.635 0.15875,0.529167 0.238125,0.370416 0.687917,0.3175 0.714375,0.79375 0.767292,0.635 0.449791,0.79375 0.47625,0.529167 0.582084,-0.529167 -0.211667,-0.07937 -0.132292,-0.343958 0.423334,-0.3175 0.291041,-0.661458 0.211667,-0.926042 0.05292,-1.164167 -0.07937,-1.190625 -0.105834,-0.846666 0.15875,-0.582084 0.687917,-0.396875 h 2.936875 l 1.693333,-0.608541 0.132292,-0.449792 0.02646,-0.555625 0.132292,-0.449792 1.693333,-1.11125 0.264584,-0.714375 0.15875,-0.926041 0.396871,-0.714376 0.952498,-0.978958 0.635,-0.47625 2.03729,-0.370417 0.58209,0.15875 0.89958,0.79375 0.58208,0.264583 4.55084,-0.79375 -1.13771,1.27 -4.23334,1.957918 -1.905,1.481666 -2.196038,0.555625 -0.74083,0.635 -0.582081,1.031875 0.582081,0.211667 0.29104,0.3175 0.13229,0.47625 0.10584,0.105833 0.529158,1.058334 0.26459,0.582083 -0.10584,0.714375 -0.29104,0.978958 -0.211668,0.449792 -2.27541,2.248958 -0.423333,0.185209 -1.455208,0.105833 -0.635,0.555625 -0.449792,1.322916 0.740833,0.582084 0.370417,0.15875 1.402292,0.105833 0.3175,0.449792 0.132291,1.11125 -0.264583,0.185208 -0.423333,0.47625 -0.291042,0.185208 0.502708,0.396875 2.69875,0.07937 1.534578,0.740834 1.08479,-0.105834 1.98438,-1.799166 1.21708,-0.15875 0.52917,0.291041 0.47625,0.555625 0.34396,0.899584 0.13229,1.322916 0.13229,0.687917 0.34396,0.238125 0.34396,0.07937 0.15875,0.211667 z m -83.317752,-32.887709 -0.449792,0.343959 -0.423333,-0.687917 -0.05292,-1.005417 0.264583,-0.15875 0.582084,0.820209 0.185208,0.132291 z"
       id="ISL702"
       name="Norðurland eystra"
       style="fill:#acbf64;fill-opacity:1;stroke:none;stroke-width:0.52916664;stroke-linecap:round;stroke-linejoin:round;stroke-opacity:1"
       inkscape:connector-curvature="0"
       sodipodi:nodetypes="ccccccccccccccccccccccccccccccccccccccccccccccccccccccccccccccccccccccccccccccccccccccccccccccccccccccccccccccccccccccccccccccccccccccccccccccccccccccccccccccccccccccccccccccccccccccccccccccccccccccccccccccccccccccccccccccccccccccccccccccccccccccccccccccccccccccccccccccccccccccccccccccccccccccccccccccccccccccccccccccccccccccccccccccccccccccccccccccccccccccccccccccccccccccccccccccccccccccccccccccccccccccccccccccccccccccccccccccccccccccccccccccccccccccccccccccccccccccc" />
  </g>
</svg>
