<?xml version="1.0" encoding="UTF-8" standalone="no"?>
<!-- Created with Inkscape (http://www.inkscape.org/) -->

<svg
   xmlns:dc="http://purl.org/dc/elements/1.1/"
   xmlns:cc="http://creativecommons.org/ns#"
   xmlns:rdf="http://www.w3.org/1999/02/22-rdf-syntax-ns#"
   xmlns:svg="http://www.w3.org/2000/svg"
   xmlns="http://www.w3.org/2000/svg"
   xmlns:sodipodi="http://sodipodi.sourceforge.net/DTD/sodipodi-0.dtd"
   xmlns:inkscape="http://www.inkscape.org/namespaces/inkscape"
   width="100"
   height="100"
   viewBox="0 0 26.458333 26.458334"
   version="1.1"
   id="svg8"
   inkscape:version="0.91 r13725"
   sodipodi:docname="simi.svg">
  <defs
     id="defs2" />
  <sodipodi:namedview
     id="base"
     pagecolor="#ffffff"
     bordercolor="#666666"
     borderopacity="1.0"
     inkscape:pageopacity="0.0"
     inkscape:pageshadow="2"
     inkscape:zoom="2.8"
     inkscape:cx="45.143606"
     inkscape:cy="25.71866"
     inkscape:document-units="px"
     inkscape:current-layer="layer1"
     showgrid="false"
     units="px"
     inkscape:window-width="1920"
     inkscape:window-height="991"
     inkscape:window-x="0"
     inkscape:window-y="1080"
     inkscape:window-maximized="1"
     inkscape:snap-bbox="true"
     inkscape:object-paths="true"
     inkscape:snap-intersection-paths="true"
     inkscape:object-nodes="true"
     inkscape:snap-smooth-nodes="true"
     inkscape:bbox-nodes="true"
     inkscape:bbox-paths="true"
     inkscape:snap-bbox-edge-midpoints="true"
     inkscape:snap-bbox-midpoints="true"
     inkscape:snap-grids="false"
     inkscape:snap-page="true"
     inkscape:snap-object-midpoints="true" />
  <metadata
     id="metadata5">
    <rdf:RDF>
      <cc:Work
         rdf:about="">
        <dc:format>image/svg+xml</dc:format>
        <dc:type
           rdf:resource="http://purl.org/dc/dcmitype/StillImage" />
        <dc:title />
      </cc:Work>
    </rdf:RDF>
  </metadata>
  <g
     inkscape:label="Layer 1"
     inkscape:groupmode="layer"
     id="layer1"
     transform="translate(0,-270.54165)">
    <path
       style="color:#000000;font-style:normal;font-variant:normal;font-weight:normal;font-stretch:normal;font-size:medium;line-height:normal;font-family:sans-serif;text-indent:0;text-align:start;text-decoration:none;text-decoration-line:none;text-decoration-style:solid;text-decoration-color:#000000;letter-spacing:normal;word-spacing:normal;text-transform:none;direction:ltr;block-progression:tb;writing-mode:lr-tb;baseline-shift:baseline;text-anchor:start;white-space:normal;clip-rule:nonzero;display:inline;overflow:visible;visibility:visible;opacity:0.5;isolation:auto;mix-blend-mode:normal;color-interpolation:sRGB;color-interpolation-filters:linearRGB;solid-color:#000000;solid-opacity:1;fill:#acbf64;fill-opacity:1;fill-rule:nonzero;stroke:none;stroke-width:1.4352802;stroke-linecap:round;stroke-linejoin:miter;stroke-miterlimit:4;stroke-dasharray:none;stroke-dashoffset:15.11334896;stroke-opacity:1;paint-order:normal;color-rendering:auto;image-rendering:auto;shape-rendering:auto;text-rendering:auto;enable-background:accumulate"
       d="M 43.914062,1.6816406 7.2714844,17.736328 2.8496094,57.488281 12.511719,64.736328 2.7753906,92.388672 25.150391,74.03125 35.09375,81.205078 41.976562,78.189453 57.0625,91.148438 58.738281,90.152344 68.673828,84.269531 91.763672,97.726562 86.501953,73.550781 97.462891,66.515625 86.568359,20.541016 67.433594,18.982422 Z M 43.228516,7.9042969 70.408203,27.900391 66.679688,61.445312 35.757812,74.990234 24.935547,67.1875 14.34375,75.882812 18.957031,62.787109 8.5859375,55.007812 12.3125,21.449219 Z m 32.52539,17.1992191 6.44336,0.523437 9.101562,38.400391 -10.902344,6.998047 3.439454,15.804687 L 68.652344,77.980469 57.644531,84.498047 47.490234,75.775391 71.730469,65.158203 c 1.464598,-13.2566 2.941654,-26.511839 4.414062,-39.767578 z"
       transform="matrix(0.26458333,0,0,0.26458334,0,270.54165)"
       id="path830"
       inkscape:connector-curvature="0"
       sodipodi:nodetypes="cccccccccccccccccccccccccccccccccccccc" />
    <path
       style="opacity:0.5;fill:none;stroke:#acbf64;stroke-width:1.19606686;stroke-linecap:butt;stroke-linejoin:miter;stroke-miterlimit:4;stroke-dasharray:none;stroke-opacity:1"
       d="m 5.8954759,276.99076 c 0.5688736,-1.06794 1.9097373,-1.08347 1.9097373,-1.08347 l 1.4243115,2.39429 c 0,0 -0.7648475,0.61617 -1.0096525,1.02002 -0.2448032,0.40385 -0.1000854,0.87809 0.198914,1.47613 0.2990157,0.59803 0.915113,1.94335 2.3247638,2.71225 1.40965,0.76889 1.971925,-0.047 1.971925,-0.047 l 0.642897,-0.76372 2.69115,1.45237 -0.218764,0.8595 c 0,0 -0.451894,1.22392 -1.580517,1.44505 -1.128623,0.22112 -3.25191,-0.45401 -4.6072652,-1.47807 -1.3553548,-1.02405 -1.5245253,-1.37105 -2.852838,-2.92323 -1.3283127,-1.55216 -1.4635374,-3.99616 -0.8946619,-5.0641 z"
       id="path826"
       inkscape:connector-curvature="0"
       sodipodi:nodetypes="zcczcscccczzzz" />
  </g>
</svg>
