<?xml version="1.0" encoding="UTF-8" standalone="no"?>
<!-- Created with Inkscape (http://www.inkscape.org/) -->

<svg
   xmlns:dc="http://purl.org/dc/elements/1.1/"
   xmlns:cc="http://creativecommons.org/ns#"
   xmlns:rdf="http://www.w3.org/1999/02/22-rdf-syntax-ns#"
   xmlns:svg="http://www.w3.org/2000/svg"
   xmlns="http://www.w3.org/2000/svg"
   xmlns:sodipodi="http://sodipodi.sourceforge.net/DTD/sodipodi-0.dtd"
   xmlns:inkscape="http://www.inkscape.org/namespaces/inkscape"
   width="56.704441mm"
   height="23.648352mm"
   viewBox="0 0 200.92125 83.793371"
   id="svg6485"
   version="1.1"
   inkscape:version="0.91 r13725"
   sodipodi:docname="vitjun_logo_3.svg">
  <defs
     id="defs6487" />
  <sodipodi:namedview
     id="base"
     pagecolor="#ffffff"
     bordercolor="#666666"
     borderopacity="1.0"
     inkscape:pageopacity="0.0"
     inkscape:pageshadow="2"
     inkscape:zoom="2"
     inkscape:cx="9.7209489"
     inkscape:cy="63.015538"
     inkscape:document-units="px"
     inkscape:current-layer="layer1"
     showgrid="false"
     inkscape:window-width="1920"
     inkscape:window-height="991"
     inkscape:window-x="0"
     inkscape:window-y="1080"
     inkscape:window-maximized="1"
     inkscape:snap-bbox="true"
     inkscape:bbox-paths="true"
     inkscape:bbox-nodes="true"
     inkscape:snap-bbox-edge-midpoints="true"
     inkscape:snap-bbox-midpoints="true"
     inkscape:object-paths="false"
     inkscape:snap-intersection-paths="true"
     inkscape:object-nodes="true"
     inkscape:snap-smooth-nodes="true"
     inkscape:snap-midpoints="true"
     inkscape:snap-grids="false"
     inkscape:snap-global="false"
     inkscape:snap-object-midpoints="true"
     fit-margin-top="0"
     fit-margin-left="0"
     fit-margin-right="0"
     fit-margin-bottom="0" />
  <metadata
     id="metadata6490">
    <rdf:RDF>
      <cc:Work
         rdf:about="">
        <dc:format>image/svg+xml</dc:format>
        <dc:type
           rdf:resource="http://purl.org/dc/dcmitype/StillImage" />
        <dc:title />
      </cc:Work>
    </rdf:RDF>
  </metadata>
  <g
     inkscape:label="Layer 1"
     inkscape:groupmode="layer"
     id="layer1"
     transform="translate(2.90819,-666.38726)">
    <path
       sodipodi:type="star"
       style="opacity:1;fill:#ffffff;fill-opacity:0;stroke:#809c13;stroke-width:2.39092541;stroke-linecap:round;stroke-linejoin:miter;stroke-miterlimit:4;stroke-dasharray:none;stroke-opacity:1"
       id="path4175"
       sodipodi:sides="5"
       sodipodi:cx="73.800491"
       sodipodi:cy="643.54913"
       sodipodi:r1="25.813194"
       sodipodi:r2="20.883312"
       sodipodi:arg1="-0.31415992"
       sodipodi:arg2="0.31415861"
       inkscape:flatsided="true"
       inkscape:rounded="0"
       inkscape:randomized="0"
       d="m 98.350293,635.5724 -9.377173,28.86004 -30.34523,2e-5 -9.377211,-28.86003 24.549795,-17.83649 z"
       transform="matrix(0,0.83534489,-0.837649,0,691.59125,662.0299)"
       inkscape:transform-center-x="-2.0647568" />
    <path
       sodipodi:type="star"
       style="opacity:1;fill:#ffffff;fill-opacity:0;stroke:#809c13;stroke-width:2.39092541;stroke-linecap:round;stroke-linejoin:miter;stroke-miterlimit:4;stroke-dasharray:none;stroke-opacity:1"
       id="path4179"
       sodipodi:sides="6"
       sodipodi:cx="73.800522"
       sodipodi:cy="690.71222"
       sodipodi:r1="30.34523"
       sodipodi:r2="26.279739"
       sodipodi:arg1="-6.5464102e-07"
       sodipodi:arg2="0.52359812"
       inkscape:flatsided="true"
       inkscape:rounded="0"
       inkscape:randomized="0"
       d="m 104.14575,690.7122 -15.172596,26.27975 -30.34523,2e-5 -15.172632,-26.27973 15.172598,-26.27975 30.34523,-2e-5 z"
       transform="matrix(0,0.83534489,-0.837649,0,691.59125,662.0299)" />
    <path
       style="fill:none;fill-rule:evenodd;stroke:#809c13;stroke-width:2;stroke-linecap:butt;stroke-linejoin:miter;stroke-miterlimit:4;stroke-dasharray:none;stroke-opacity:1"
       d="m 169.0915,716.74185 22.01321,-12.67438"
       id="path4181-6"
       inkscape:connector-curvature="0" />
    <path
       style="opacity:1;fill:none;fill-rule:evenodd;stroke:#809c13;stroke-width:2;stroke-linecap:butt;stroke-linejoin:miter;stroke-miterlimit:4;stroke-dasharray:none;stroke-opacity:1"
       d="m 188.0066,709.43357 3.09811,-5.3661 -6.19621,0"
       id="path5690-0-9-8-9-8-5-6-5-9-9-9-7"
       inkscape:connector-curvature="0"
       sodipodi:nodetypes="ccc"
       inkscape:transform-center-x="3.076348"
       inkscape:transform-center-y="2.7192065" />
    <path
       style="fill:none;fill-rule:evenodd;stroke:#809c13;stroke-width:2;stroke-linecap:butt;stroke-linejoin:miter;stroke-miterlimit:4;stroke-dasharray:none;stroke-opacity:1"
       d="m 42.654481,706.42114 48.34917,15.66634"
       id="path4238"
       inkscape:connector-curvature="0" />
    <path
       style="opacity:1;fill:none;fill-rule:evenodd;stroke:#809d12;stroke-width:1.25;stroke-linecap:butt;stroke-linejoin:miter;stroke-miterlimit:4;stroke-dasharray:none;stroke-opacity:0.65098039"
       d="m 158.17841,706.49168 12.51285,17.17507"
       id="path4246"
       inkscape:connector-curvature="0" />
    <path
       style="opacity:1;fill:none;fill-rule:evenodd;stroke:#809d12;stroke-width:1.25;stroke-linecap:butt;stroke-linejoin:miter;stroke-miterlimit:4;stroke-dasharray:none;stroke-opacity:0.65098039"
       d="m 132.2784,734.76885 -1e-5,-22.18015"
       id="path4248"
       inkscape:connector-curvature="0" />
    <path
       style="opacity:1;fill:none;fill-rule:evenodd;stroke:#809d12;stroke-width:1.25;stroke-linecap:butt;stroke-linejoin:miter;stroke-miterlimit:4;stroke-dasharray:none;stroke-opacity:0.65098039"
       d="M 113.01686,745.85893 93.755306,734.76887"
       id="path4250"
       inkscape:connector-curvature="0" />
    <path
       style="opacity:1;fill:none;fill-rule:evenodd;stroke:#809d12;stroke-width:1.25;stroke-linecap:butt;stroke-linejoin:miter;stroke-miterlimit:4;stroke-dasharray:none;stroke-opacity:0.65098039"
       d="M 93.755291,712.58873 113.01683,701.49865"
       id="path4252"
       inkscape:connector-curvature="0" />
    <g
       transform="translate(-534.66139,-548.92424)"
       style="font-style:normal;font-variant:normal;font-weight:300;font-stretch:expanded;font-size:48.59887695px;line-height:884.00001526%;font-family:Syncopate;-inkscape-font-specification:'Syncopate Light Expanded';letter-spacing:0px;word-spacing:0px;opacity:0.97000002;fill:#000000;fill-opacity:1;stroke:none;stroke-width:1px;stroke-linecap:butt;stroke-linejoin:miter;stroke-opacity:1"
       id="text4257-1-4-3">
      <path
         inkscape:connector-curvature="0"
         d="m 552.46943,1248.6995 -4.4375,0 -16.27873,-32.6049 3.32219,0 15.25834,30.5641 15.25834,-30.5641 3.29846,0 -16.4211,32.6049 z"
         id="path5956-5" />
      <path
         inkscape:connector-curvature="0"
         d="m 575.70102,1248.6995 0,-32.6049 2.96624,0 0,32.6049 -2.96624,0 z"
         id="path5958-6" />
      <path
         inkscape:connector-curvature="0"
         d="m 602.87178,1218.7998 0,29.8997 -2.94251,0 0,-29.8997 -14.8312,0 0,-2.7052 32.60491,0 0,2.7052 -14.8312,0 z"
         id="path5960-2" />
      <path
         inkscape:connector-curvature="0"
         d="m 642.00242,1238.2583 q 0,2.7052 -0.9492,4.746 -0.94919,2.017 -2.65775,3.3696 -1.70855,1.3526 -4.08154,2.0408 -2.373,0.6644 -5.24432,0.6644 -1.77974,0 -3.27473,-0.1661 -1.49498,-0.1423 -2.7764,-0.3796 -1.25768,-0.2373 -2.34926,-0.4984 -1.06784,-0.2847 -2.04077,-0.5458 l 0,-3.0611 q 0.99666,0.3797 2.0645,0.7356 1.06785,0.356 2.39672,0.6407 1.32888,0.2848 2.96624,0.4509 1.6611,0.1661 3.79679,0.1661 1.92212,0 3.58322,-0.5221 1.68482,-0.5458 2.91878,-1.5661 1.25768,-1.0442 1.96958,-2.5154 0.7119,-1.495 0.7119,-3.4171 l 0,-22.3061 2.96624,0 0,22.1637 z"
         id="path5962-9" />
      <path
         inkscape:connector-curvature="0"
         d="m 655.74204,1216.0946 0,21.523 q -0.0237,2.7289 0.68817,4.4849 0.71189,1.7561 2.04077,2.7764 1.35261,0.9967 3.251,1.4001 1.92212,0.3797 4.31884,0.3797 2.7764,0 5.43416,-0.6644 2.65775,-0.6882 5.00701,-1.7086 2.34926,-1.0441 4.29511,-2.3018 1.96959,-1.2577 3.34592,-2.4205 l 0,-23.4688 3.0137,0 0,32.6049 -3.0137,0 0,-5.7427 q -1.66109,1.0679 -3.63067,2.2306 -1.96959,1.1391 -4.27139,2.112 -2.27807,0.9492 -4.88836,1.5662 -2.61029,0.617 -5.52908,0.617 -3.29845,0 -5.76637,-0.8306 -2.44418,-0.8305 -4.08154,-2.3255 -1.61364,-1.495 -2.42045,-3.5358 -0.80682,-2.0645 -0.80682,-4.5324 l 0,-22.1637 3.0137,0 z"
         id="path5964-1" />
      <path
         inkscape:connector-curvature="0"
         d="m 729.70821,1248.6995 0,-21.5231 q 0,-2.7052 -0.73563,-4.4375 -0.7119,-1.756 -2.0645,-2.7764 -1.32888,-1.0204 -3.251,-1.4238 -1.92213,-0.4034 -4.31885,-0.4034 -2.7764,0 -5.45788,0.6882 -2.65775,0.6644 -5.03074,1.7085 -2.37299,1.0204 -4.36631,2.2781 -1.99331,1.2577 -3.36965,2.4205 l 0,23.4689 -2.96624,0 0,-32.6049 2.96624,0 0,5.7189 q 1.6611,-1.0442 3.65441,-2.1832 2.01704,-1.1628 4.31885,-2.112 2.32553,-0.9729 4.95955,-1.5899 2.63402,-0.6169 5.5528,-0.6169 3.29846,0 5.74264,0.8068 2.46791,0.7831 4.08155,2.2543 1.63736,1.4475 2.44418,3.5358 0.80682,2.0645 0.80682,4.6273 l 0,22.1638 -2.96624,0 z"
         id="path5966-2" />
    </g>
    <g
       transform="translate(-534.80063,-548.41692)"
       style="font-style:normal;font-variant:normal;font-weight:300;font-stretch:expanded;font-size:9.86613274px;line-height:884.00001526%;font-family:Syncopate;-inkscape-font-specification:'Syncopate Light Expanded';letter-spacing:0px;word-spacing:0px;opacity:0.97000002;fill:#000000;fill-opacity:1;stroke:none;stroke-width:1px;stroke-linecap:butt;stroke-linejoin:miter;stroke-opacity:1"
       id="text4257-1-4-7-7">
      <path
         inkscape:connector-curvature="0"
         d="m 710.07131,1247.686 q -0.40466,0.1252 -0.75152,0.2168 -0.34686,0.087 -0.68408,0.1397 -0.33722,0.058 -0.68889,0.082 -0.34686,0.029 -0.76598,0.029 -0.97312,0 -1.75837,-0.2361 -0.78524,-0.236 -1.33925,-0.6744 -0.54919,-0.4432 -0.84787,-1.0695 -0.29868,-0.6263 -0.29868,-1.4067 0,-0.7563 0.28423,-1.3874 0.28905,-0.6311 0.80451,-1.0839 0.51547,-0.4529 1.23327,-0.7034 0.7178,-0.2505 1.58494,-0.2505 0.90086,0 1.60421,0.2409 0.70335,0.2408 1.18509,0.6889 0.48175,0.448 0.73226,1.0887 0.2505,0.6359 0.2505,1.4356 l 0,0.1494 -7.05756,0 q 0.053,0.6166 0.30832,1.1128 0.25532,0.4962 0.72262,0.843 0.47211,0.3469 1.15618,0.5348 0.6889,0.183 1.60421,0.183 0.39022,0 0.79006,-0.053 0.39985,-0.053 0.76598,-0.1397 0.36612,-0.091 0.66962,-0.2023 0.3035,-0.1156 0.4962,-0.236 l 0,0.6985 z m -0.0482,-3.2662 q -0.0337,-0.5059 -0.22642,-0.9635 -0.1927,-0.4625 -0.5781,-0.8142 -0.38058,-0.3517 -0.97312,-0.5588 -0.58773,-0.2072 -1.41151,-0.2072 -0.77561,0 -1.35852,0.2072 -0.58291,0.2071 -0.98758,0.5588 -0.40467,0.3469 -0.6359,0.8093 -0.23124,0.4577 -0.29387,0.9684 l 6.46502,0 z"
         id="path5969-0" />
      <path
         inkscape:connector-curvature="0"
         d="m 718.91133,1248.0328 0,-3.2084 -5.93028,0 0,3.2084 -0.60218,0 0,-6.6191 0.60218,0 0,2.8519 5.93028,0 0,-2.8519 0.60218,0 0,6.6191 -0.60218,0 z"
         id="path5971-9" />
      <path
         inkscape:connector-curvature="0"
         d="m 725.13065,1241.9773 q -0.72743,0 -1.25253,0.1012 -0.52511,0.096 -0.86714,0.3035 -0.33723,0.2071 -0.50102,0.5299 -0.16379,0.3228 -0.16379,0.7708 l 0,0.7371 5.65568,0 0,0.5636 -5.65568,0 0,3.0494 -0.60218,0 0,-4.4513 q 0,-0.5106 0.17824,-0.9153 0.18307,-0.4047 0.5781,-0.6793 0.39503,-0.2794 1.01166,-0.4239 0.62145,-0.1493 1.49823,-0.1493 l 3.08798,0 0,0.5636 -2.96755,0 z"
         id="path5973-3" />
    </g>
  </g>
</svg>
